<?xml version="1.0" encoding="UTF-8" standalone="no"?>
<!-- Generator: Adobe Illustrator 18.0.0, SVG Export Plug-In . SVG Version: 6.00 Build 0)  -->

<svg
   xmlns:dc="http://purl.org/dc/elements/1.1/"
   xmlns:cc="http://creativecommons.org/ns#"
   xmlns:rdf="http://www.w3.org/1999/02/22-rdf-syntax-ns#"
   xmlns:svg="http://www.w3.org/2000/svg"
   xmlns="http://www.w3.org/2000/svg"
   xmlns:sodipodi="http://sodipodi.sourceforge.net/DTD/sodipodi-0.dtd"
   xmlns:inkscape="http://www.inkscape.org/namespaces/inkscape"
   version="1.1"
   id="Capa_1"
   x="0px"
   y="0px"
   viewBox="0 0 269.418 269.418"
   style="enable-background:new 0 0 269.418 269.418;"
   xml:space="preserve"
   sodipodi:docname="savana.svg"
   inkscape:version="0.92.3 (2405546, 2018-03-11)"><metadata
   id="metadata39"><rdf:RDF><cc:Work
       rdf:about=""><dc:format>image/svg+xml</dc:format><dc:type
         rdf:resource="http://purl.org/dc/dcmitype/StillImage" /></cc:Work></rdf:RDF></metadata><defs
   id="defs37" /><sodipodi:namedview
   pagecolor="#ffffff"
   bordercolor="#666666"
   borderopacity="1"
   objecttolerance="10"
   gridtolerance="10"
   guidetolerance="10"
   inkscape:pageopacity="0"
   inkscape:pageshadow="2"
   inkscape:window-width="1533"
   inkscape:window-height="845"
   id="namedview35"
   showgrid="false"
   inkscape:zoom="1.2387977"
   inkscape:cx="145.45416"
   inkscape:cy="136.65646"
   inkscape:window-x="67"
   inkscape:window-y="27"
   inkscape:window-maximized="1"
   inkscape:current-layer="Capa_1" />

<g
   id="g4">
</g>
<g
   id="g6">
</g>
<g
   id="g8">
</g>
<g
   id="g10">
</g>
<g
   id="g12">
</g>
<g
   id="g14">
</g>
<g
   id="g16">
</g>
<g
   id="g18">
</g>
<g
   id="g20">
</g>
<g
   id="g22">
</g>
<g
   id="g24">
</g>
<g
   id="g26">
</g>
<g
   id="g28">
</g>
<g
   id="g30">
</g>
<g
   id="g32">
</g>
<g
   id="g855"
   inkscape:export-xdpi="79.983475"
   inkscape:export-ydpi="79.983475"><path
     sodipodi:nodetypes="czcccczccccccccccccccccccccccccccccccccc"
     style="fill:#48c78e;fill-opacity:1;stroke-width:0.12467445"
     inkscape:connector-curvature="0"
     id="path2"
     d="m 92.053244,126.86638 c -4.99598,0.63358 -1.56473,13.52585 -0.77203,15.04262 0.79268,1.51676 1.81694,1.25377 1.81694,1.25377 0,0 -1.50632,-2.93584 -0.73383,-5.82266 0.77,-2.8846 2.97405,-5.91221 2.97405,-5.91221 1.730272,0.72301 4.254786,0.80129 6.247246,0.20049 -0.13931,3.98052 3.62193,9.46357 4.29628,10.48008 0.67436,1.01648 2.06723,1.0543 2.06723,1.0543 0,0 -3.63588,-6.09358 -1.38413,-11.29664 0.28675,-0.35233 2.99879,-2.20011 2.99879,-5.83664 0.23252,-2.71153 -3.08619,-5.48256 -2.42292,-6.80808 0.23027,-0.4633 0.63447,-0.63659 1.78995,-0.4633 1.15374,0.17328 2.19141,-0.0561 2.3071,-0.6927 0.11619,-0.63396 -0.17267,-0.69143 -1.27018,-0.98055 -0.96922,-0.25533 -1.3112,-1.14213 -3.37843,-1.383 0.14126,-0.21771 0.26755,-0.48999 0.36043,-0.84942 0.10722,-0.41108 -0.13901,-0.83021 -0.55118,-0.93644 -0.40943,-0.10542 -0.82884,0.14127 -0.93656,0.55094 -0.0806,0.31893 -0.16619,0.426 -0.16245,0.44247 -0.32752,-0.0136 -1.11122,-0.77111 -1.82785,-1.72014 0.47551,-0.33162 0.87858,-0.88779 1.20174,-1.66689 0.16158,-0.39148 -0.0244,-0.84029 -0.41642,-1.00226 -0.39185,-0.1627 -0.83981,0.0228 -1.00301,0.41529 -0.16282,0.39335 -0.49645,1.05675 -0.90139,1.08729 -0.63584,0.0397 -1.72786,-1.17468 -2.26534,-2.07421 -0.217298,-0.36467 -0.686208,-0.48374 -1.052498,-0.26717 -0.3648,0.21692 -0.483487,0.68733 -0.266051,1.05161 0.256953,0.43337 1.486619,2.37106 3.025469,2.75544 0.55081,0.82907 2.50995,2.74658 2.55994,2.8709 -0.26505,0.0558 -0.58123,0.0739 -0.81213,-0.0656 -0.47064,-0.28998 -1.92534,-0.27552 -1.97758,0.23415 -0.0524,0.51229 1.04639,0.68247 1.75579,0.77373 0.25932,0.0538 0.52413,-0.009 0.70964,0.0815 l 0.004,-0.0104 c -0.0334,0.32591 -0.0228,0.70803 0.0475,1.15635 0.34735,2.1939 1.79071,4.44389 0.6351,5.71396 -1.15387,1.26982 -4.787014,0.86549 -7.501554,0.40319 -2.712802,-0.46118 -6.448622,-0.53815 -7.807292,3.32303 0.45786,0.57942 0.39807,-1.03145 2.64602,-1.10203 z" /><text
     id="text848"
     y="142.70021"
     x="118.57966"
     style="font-style:normal;font-variant:normal;font-weight:300;font-stretch:normal;font-size:40px;line-height:1.25;font-family:Signika;-inkscape-font-specification:'Signika Light';letter-spacing:0px;word-spacing:0px;fill:#48c78e;fill-opacity:1;stroke:none"
     xml:space="preserve"><tspan
       y="142.70021"
       x="118.57966"
       id="tspan846"
       sodipodi:role="line">savana</tspan></text>
</g></svg>